<?xml version="1.0" encoding="UTF-8" standalone="no"?>
<!DOCTYPE svg PUBLIC "-//W3C//DTD SVG 1.1//EN"
 "http://www.w3.org/Graphics/SVG/1.1/DTD/svg11.dtd">
<!-- Generated by graphviz version 2.44.1 (20200629.0846)
 -->
<!-- Pages: 1 -->
<svg width="2899pt" height="404pt"
 viewBox="0.00 0.00 2899.00 404.00" xmlns="http://www.w3.org/2000/svg" xmlns:xlink="http://www.w3.org/1999/xlink">
<g id="graph0" class="graph" transform="scale(1 1) rotate(0) translate(4 400)">
<polygon fill="white" stroke="transparent" points="-4,4 -4,-400 2895,-400 2895,4 -4,4"/>
<!-- [root] provider[&quot;registry.terraform.io/hashicorp/tfe&quot;] -->
<g id="node1" class="node">
<title>[root] provider[&quot;registry.terraform.io/hashicorp/tfe&quot;]</title>
<polygon fill="none" stroke="black" points="822.5,-108 576.33,-90 822.5,-72 1068.67,-90 822.5,-108"/>
<text text-anchor="middle" x="822.5" y="-86.3" font-family="Times,serif" font-size="14.00">provider[&quot;registry.terraform.io/hashicorp/tfe&quot;]</text>
</g>
<!-- [root] var.token -->
<g id="node29" class="node">
<title>[root] var.token</title>
<polygon fill="none" stroke="black" points="850,-36 789,-36 789,0 856,0 856,-30 850,-36"/>
<polyline fill="none" stroke="black" points="850,-36 850,-30 "/>
<polyline fill="none" stroke="black" points="856,-30 850,-30 "/>
<text text-anchor="middle" x="822.5" y="-14.3" font-family="Times,serif" font-size="14.00">var.token</text>
</g>
<!-- [root] provider[&quot;registry.terraform.io/hashicorp/tfe&quot;]&#45;&gt;[root] var.token -->
<g id="edge31" class="edge">
<title>[root] provider[&quot;registry.terraform.io/hashicorp/tfe&quot;]&#45;&gt;[root] var.token</title>
<path fill="none" stroke="black" d="M822.5,-71.7C822.5,-63.98 822.5,-54.71 822.5,-46.11"/>
<polygon fill="black" stroke="black" points="826,-46.1 822.5,-36.1 819,-46.1 826,-46.1"/>
</g>
<!-- [root] tfe_variable.aks_sku (expand) -->
<g id="node2" class="node">
<title>[root] tfe_variable.aks_sku (expand)</title>
<polygon fill="none" stroke="black" points="1267.5,-252 1139.5,-252 1139.5,-216 1267.5,-216 1267.5,-252"/>
<text text-anchor="middle" x="1203.5" y="-230.3" font-family="Times,serif" font-size="14.00">tfe_variable.aks_sku</text>
</g>
<!-- [root] tfe_workspace.azure (expand) -->
<g id="node17" class="node">
<title>[root] tfe_workspace.azure (expand)</title>
<polygon fill="none" stroke="black" points="1423.5,-180 1295.5,-180 1295.5,-144 1423.5,-144 1423.5,-180"/>
<text text-anchor="middle" x="1359.5" y="-158.3" font-family="Times,serif" font-size="14.00">tfe_workspace.azure</text>
</g>
<!-- [root] tfe_variable.aks_sku (expand)&#45;&gt;[root] tfe_workspace.azure (expand) -->
<g id="edge34" class="edge">
<title>[root] tfe_variable.aks_sku (expand)&#45;&gt;[root] tfe_workspace.azure (expand)</title>
<path fill="none" stroke="black" d="M1241.66,-215.88C1262.89,-206.35 1289.51,-194.41 1312.07,-184.28"/>
<polygon fill="black" stroke="black" points="1313.77,-187.36 1321.46,-180.07 1310.91,-180.97 1313.77,-187.36"/>
</g>
<!-- [root] tfe_variable.arm_client_id (expand) -->
<g id="node3" class="node">
<title>[root] tfe_variable.arm_client_id (expand)</title>
<polygon fill="none" stroke="black" points="161,-252 0,-252 0,-216 161,-216 161,-252"/>
<text text-anchor="middle" x="80.5" y="-230.3" font-family="Times,serif" font-size="14.00">tfe_variable.arm_client_id</text>
</g>
<!-- [root] tfe_variable.arm_client_id (expand)&#45;&gt;[root] tfe_workspace.azure (expand) -->
<g id="edge35" class="edge">
<title>[root] tfe_variable.arm_client_id (expand)&#45;&gt;[root] tfe_workspace.azure (expand)</title>
<path fill="none" stroke="black" d="M161.37,-217.16C164.45,-216.74 167.5,-216.35 170.5,-216 590.21,-167.26 1098.05,-162.57 1285.43,-162.65"/>
<polygon fill="black" stroke="black" points="1285.44,-166.15 1295.44,-162.66 1285.45,-159.15 1285.44,-166.15"/>
</g>
<!-- [root] var.arm_client_id -->
<g id="node18" class="node">
<title>[root] var.arm_client_id</title>
<polygon fill="none" stroke="black" points="131,-180 24,-180 24,-144 137,-144 137,-174 131,-180"/>
<polyline fill="none" stroke="black" points="131,-180 131,-174 "/>
<polyline fill="none" stroke="black" points="137,-174 131,-174 "/>
<text text-anchor="middle" x="80.5" y="-158.3" font-family="Times,serif" font-size="14.00">var.arm_client_id</text>
</g>
<!-- [root] tfe_variable.arm_client_id (expand)&#45;&gt;[root] var.arm_client_id -->
<g id="edge36" class="edge">
<title>[root] tfe_variable.arm_client_id (expand)&#45;&gt;[root] var.arm_client_id</title>
<path fill="none" stroke="black" d="M80.5,-215.7C80.5,-207.98 80.5,-198.71 80.5,-190.11"/>
<polygon fill="black" stroke="black" points="84,-190.1 80.5,-180.1 77,-190.1 84,-190.1"/>
</g>
<!-- [root] tfe_variable.arm_client_secret (expand) -->
<g id="node4" class="node">
<title>[root] tfe_variable.arm_client_secret (expand)</title>
<polygon fill="none" stroke="black" points="361.5,-252 179.5,-252 179.5,-216 361.5,-216 361.5,-252"/>
<text text-anchor="middle" x="270.5" y="-230.3" font-family="Times,serif" font-size="14.00">tfe_variable.arm_client_secret</text>
</g>
<!-- [root] tfe_variable.arm_client_secret (expand)&#45;&gt;[root] tfe_workspace.azure (expand) -->
<g id="edge37" class="edge">
<title>[root] tfe_variable.arm_client_secret (expand)&#45;&gt;[root] tfe_workspace.azure (expand)</title>
<path fill="none" stroke="black" d="M361.72,-217.05C364.68,-216.67 367.61,-216.32 370.5,-216 710.92,-178.07 1120.39,-167.08 1285.33,-164.07"/>
<polygon fill="black" stroke="black" points="1285.43,-167.57 1295.36,-163.89 1285.3,-160.57 1285.43,-167.57"/>
</g>
<!-- [root] var.arm_client_secret -->
<g id="node19" class="node">
<title>[root] var.arm_client_secret</title>
<polygon fill="none" stroke="black" points="331.5,-180 203.5,-180 203.5,-144 337.5,-144 337.5,-174 331.5,-180"/>
<polyline fill="none" stroke="black" points="331.5,-180 331.5,-174 "/>
<polyline fill="none" stroke="black" points="337.5,-174 331.5,-174 "/>
<text text-anchor="middle" x="270.5" y="-158.3" font-family="Times,serif" font-size="14.00">var.arm_client_secret</text>
</g>
<!-- [root] tfe_variable.arm_client_secret (expand)&#45;&gt;[root] var.arm_client_secret -->
<g id="edge38" class="edge">
<title>[root] tfe_variable.arm_client_secret (expand)&#45;&gt;[root] var.arm_client_secret</title>
<path fill="none" stroke="black" d="M270.5,-215.7C270.5,-207.98 270.5,-198.71 270.5,-190.11"/>
<polygon fill="black" stroke="black" points="274,-190.1 270.5,-180.1 267,-190.1 274,-190.1"/>
</g>
<!-- [root] tfe_variable.arm_suscription_id (expand) -->
<g id="node5" class="node">
<title>[root] tfe_variable.arm_suscription_id (expand)</title>
<polygon fill="none" stroke="black" points="569.5,-252 379.5,-252 379.5,-216 569.5,-216 569.5,-252"/>
<text text-anchor="middle" x="474.5" y="-230.3" font-family="Times,serif" font-size="14.00">tfe_variable.arm_suscription_id</text>
</g>
<!-- [root] tfe_variable.arm_suscription_id (expand)&#45;&gt;[root] tfe_workspace.azure (expand) -->
<g id="edge39" class="edge">
<title>[root] tfe_variable.arm_suscription_id (expand)&#45;&gt;[root] tfe_workspace.azure (expand)</title>
<path fill="none" stroke="black" d="M569.66,-217.08C572.64,-216.7 575.59,-216.34 578.5,-216 837.15,-186.15 1146.07,-171.3 1285.16,-165.71"/>
<polygon fill="black" stroke="black" points="1285.43,-169.2 1295.28,-165.31 1285.15,-162.21 1285.43,-169.2"/>
</g>
<!-- [root] var.arm_suscription_id -->
<g id="node20" class="node">
<title>[root] var.arm_suscription_id</title>
<polygon fill="none" stroke="black" points="539.5,-180 403.5,-180 403.5,-144 545.5,-144 545.5,-174 539.5,-180"/>
<polyline fill="none" stroke="black" points="539.5,-180 539.5,-174 "/>
<polyline fill="none" stroke="black" points="545.5,-174 539.5,-174 "/>
<text text-anchor="middle" x="474.5" y="-158.3" font-family="Times,serif" font-size="14.00">var.arm_suscription_id</text>
</g>
<!-- [root] tfe_variable.arm_suscription_id (expand)&#45;&gt;[root] var.arm_suscription_id -->
<g id="edge40" class="edge">
<title>[root] tfe_variable.arm_suscription_id (expand)&#45;&gt;[root] var.arm_suscription_id</title>
<path fill="none" stroke="black" d="M474.5,-215.7C474.5,-207.98 474.5,-198.71 474.5,-190.11"/>
<polygon fill="black" stroke="black" points="478,-190.1 474.5,-180.1 471,-190.1 478,-190.1"/>
</g>
<!-- [root] tfe_variable.arm_tenant_id (expand) -->
<g id="node6" class="node">
<title>[root] tfe_variable.arm_tenant_id (expand)</title>
<polygon fill="none" stroke="black" points="2369.5,-252 2205.5,-252 2205.5,-216 2369.5,-216 2369.5,-252"/>
<text text-anchor="middle" x="2287.5" y="-230.3" font-family="Times,serif" font-size="14.00">tfe_variable.arm_tenant_id</text>
</g>
<!-- [root] tfe_variable.arm_tenant_id (expand)&#45;&gt;[root] tfe_workspace.azure (expand) -->
<g id="edge41" class="edge">
<title>[root] tfe_variable.arm_tenant_id (expand)&#45;&gt;[root] tfe_workspace.azure (expand)</title>
<path fill="none" stroke="black" d="M2205.23,-217.17C2202.29,-216.75 2199.37,-216.36 2196.5,-216 1916.24,-181.08 1580.16,-168.65 1433.75,-164.68"/>
<polygon fill="black" stroke="black" points="1433.63,-161.17 1423.54,-164.4 1433.44,-168.17 1433.63,-161.17"/>
</g>
<!-- [root] var.arm_tenant_id -->
<g id="node21" class="node">
<title>[root] var.arm_tenant_id</title>
<polygon fill="none" stroke="black" points="2339.5,-180 2229.5,-180 2229.5,-144 2345.5,-144 2345.5,-174 2339.5,-180"/>
<polyline fill="none" stroke="black" points="2339.5,-180 2339.5,-174 "/>
<polyline fill="none" stroke="black" points="2345.5,-174 2339.5,-174 "/>
<text text-anchor="middle" x="2287.5" y="-158.3" font-family="Times,serif" font-size="14.00">var.arm_tenant_id</text>
</g>
<!-- [root] tfe_variable.arm_tenant_id (expand)&#45;&gt;[root] var.arm_tenant_id -->
<g id="edge42" class="edge">
<title>[root] tfe_variable.arm_tenant_id (expand)&#45;&gt;[root] var.arm_tenant_id</title>
<path fill="none" stroke="black" d="M2287.5,-215.7C2287.5,-207.98 2287.5,-198.71 2287.5,-190.11"/>
<polygon fill="black" stroke="black" points="2291,-190.1 2287.5,-180.1 2284,-190.1 2291,-190.1"/>
</g>
<!-- [root] tfe_variable.enviroment (expand) -->
<g id="node7" class="node">
<title>[root] tfe_variable.enviroment (expand)</title>
<polygon fill="none" stroke="black" points="1433,-252 1286,-252 1286,-216 1433,-216 1433,-252"/>
<text text-anchor="middle" x="1359.5" y="-230.3" font-family="Times,serif" font-size="14.00">tfe_variable.enviroment</text>
</g>
<!-- [root] tfe_variable.enviroment (expand)&#45;&gt;[root] tfe_workspace.azure (expand) -->
<g id="edge43" class="edge">
<title>[root] tfe_variable.enviroment (expand)&#45;&gt;[root] tfe_workspace.azure (expand)</title>
<path fill="none" stroke="black" d="M1359.5,-215.7C1359.5,-207.98 1359.5,-198.71 1359.5,-190.11"/>
<polygon fill="black" stroke="black" points="1363,-190.1 1359.5,-180.1 1356,-190.1 1363,-190.1"/>
</g>
<!-- [root] tfe_variable.load_balancer_sku (expand) -->
<g id="node8" class="node">
<title>[root] tfe_variable.load_balancer_sku (expand)</title>
<polygon fill="none" stroke="black" points="1637.5,-252 1451.5,-252 1451.5,-216 1637.5,-216 1637.5,-252"/>
<text text-anchor="middle" x="1544.5" y="-230.3" font-family="Times,serif" font-size="14.00">tfe_variable.load_balancer_sku</text>
</g>
<!-- [root] tfe_variable.load_balancer_sku (expand)&#45;&gt;[root] tfe_workspace.azure (expand) -->
<g id="edge44" class="edge">
<title>[root] tfe_variable.load_balancer_sku (expand)&#45;&gt;[root] tfe_workspace.azure (expand)</title>
<path fill="none" stroke="black" d="M1499.24,-215.88C1473.5,-206.14 1441.09,-193.87 1413.96,-183.61"/>
<polygon fill="black" stroke="black" points="1415.2,-180.33 1404.61,-180.07 1412.72,-186.88 1415.2,-180.33"/>
</g>
<!-- [root] tfe_variable.location (expand) -->
<g id="node9" class="node">
<title>[root] tfe_variable.location (expand)</title>
<polygon fill="none" stroke="black" points="1783.5,-252 1655.5,-252 1655.5,-216 1783.5,-216 1783.5,-252"/>
<text text-anchor="middle" x="1719.5" y="-230.3" font-family="Times,serif" font-size="14.00">tfe_variable.location</text>
</g>
<!-- [root] tfe_variable.location (expand)&#45;&gt;[root] tfe_workspace.azure (expand) -->
<g id="edge45" class="edge">
<title>[root] tfe_variable.location (expand)&#45;&gt;[root] tfe_workspace.azure (expand)</title>
<path fill="none" stroke="black" d="M1655.44,-217.91C1652.42,-217.25 1649.43,-216.61 1646.5,-216 1574.56,-200.99 1492.01,-185.97 1433.97,-175.78"/>
<polygon fill="black" stroke="black" points="1434.24,-172.27 1423.78,-174 1433.03,-179.17 1434.24,-172.27"/>
</g>
<!-- [root] tfe_variable.max_pods_per_node (expand) -->
<g id="node10" class="node">
<title>[root] tfe_variable.max_pods_per_node (expand)</title>
<polygon fill="none" stroke="black" points="1999.5,-252 1801.5,-252 1801.5,-216 1999.5,-216 1999.5,-252"/>
<text text-anchor="middle" x="1900.5" y="-230.3" font-family="Times,serif" font-size="14.00">tfe_variable.max_pods_per_node</text>
</g>
<!-- [root] tfe_variable.max_pods_per_node (expand)&#45;&gt;[root] tfe_workspace.azure (expand) -->
<g id="edge46" class="edge">
<title>[root] tfe_variable.max_pods_per_node (expand)&#45;&gt;[root] tfe_workspace.azure (expand)</title>
<path fill="none" stroke="black" d="M1801.35,-217.26C1798.37,-216.83 1795.41,-216.41 1792.5,-216 1666.78,-198.42 1520.07,-181.14 1433.75,-171.3"/>
<polygon fill="black" stroke="black" points="1434.11,-167.82 1423.78,-170.17 1433.32,-174.78 1434.11,-167.82"/>
</g>
<!-- [root] tfe_variable.network_plugin (expand) -->
<g id="node11" class="node">
<title>[root] tfe_variable.network_plugin (expand)</title>
<polygon fill="none" stroke="black" points="2187.5,-252 2017.5,-252 2017.5,-216 2187.5,-216 2187.5,-252"/>
<text text-anchor="middle" x="2102.5" y="-230.3" font-family="Times,serif" font-size="14.00">tfe_variable.network_plugin</text>
</g>
<!-- [root] tfe_variable.network_plugin (expand)&#45;&gt;[root] tfe_workspace.azure (expand) -->
<g id="edge47" class="edge">
<title>[root] tfe_variable.network_plugin (expand)&#45;&gt;[root] tfe_workspace.azure (expand)</title>
<path fill="none" stroke="black" d="M2017.25,-217.21C2014.3,-216.78 2011.38,-216.38 2008.5,-216 1801.28,-188.87 1554.91,-173.28 1433.99,-166.72"/>
<polygon fill="black" stroke="black" points="1433.91,-163.21 1423.74,-166.17 1433.54,-170.2 1433.91,-163.21"/>
</g>
<!-- [root] tfe_variable.node_pool_node_count (expand) -->
<g id="node12" class="node">
<title>[root] tfe_variable.node_pool_node_count (expand)</title>
<polygon fill="none" stroke="black" points="799.5,-252 587.5,-252 587.5,-216 799.5,-216 799.5,-252"/>
<text text-anchor="middle" x="693.5" y="-230.3" font-family="Times,serif" font-size="14.00">tfe_variable.node_pool_node_count</text>
</g>
<!-- [root] tfe_variable.node_pool_node_count (expand)&#45;&gt;[root] tfe_workspace.azure (expand) -->
<g id="edge48" class="edge">
<title>[root] tfe_variable.node_pool_node_count (expand)&#45;&gt;[root] tfe_workspace.azure (expand)</title>
<path fill="none" stroke="black" d="M799.68,-217.1C802.65,-216.72 805.6,-216.35 808.5,-216 978.6,-195.26 1179.06,-177.7 1285.06,-168.95"/>
<polygon fill="black" stroke="black" points="1285.65,-172.41 1295.33,-168.11 1285.08,-165.44 1285.65,-172.41"/>
</g>
<!-- [root] tfe_variable.node_vm_size (expand) -->
<g id="node13" class="node">
<title>[root] tfe_variable.node_vm_size (expand)</title>
<polygon fill="none" stroke="black" points="981.5,-252 817.5,-252 817.5,-216 981.5,-216 981.5,-252"/>
<text text-anchor="middle" x="899.5" y="-230.3" font-family="Times,serif" font-size="14.00">tfe_variable.node_vm_size</text>
</g>
<!-- [root] tfe_variable.node_vm_size (expand)&#45;&gt;[root] tfe_workspace.azure (expand) -->
<g id="edge49" class="edge">
<title>[root] tfe_variable.node_vm_size (expand)&#45;&gt;[root] tfe_workspace.azure (expand)</title>
<path fill="none" stroke="black" d="M981.81,-217.46C984.74,-216.96 987.65,-216.47 990.5,-216 1092.35,-199.18 1210.52,-182.75 1285.14,-172.75"/>
<polygon fill="black" stroke="black" points="1285.93,-176.17 1295.38,-171.38 1285,-169.23 1285.93,-176.17"/>
</g>
<!-- [root] tfe_variable.project (expand) -->
<g id="node14" class="node">
<title>[root] tfe_variable.project (expand)</title>
<polygon fill="none" stroke="black" points="1121.5,-252 999.5,-252 999.5,-216 1121.5,-216 1121.5,-252"/>
<text text-anchor="middle" x="1060.5" y="-230.3" font-family="Times,serif" font-size="14.00">tfe_variable.project</text>
</g>
<!-- [root] tfe_variable.project (expand)&#45;&gt;[root] tfe_workspace.azure (expand) -->
<g id="edge50" class="edge">
<title>[root] tfe_variable.project (expand)&#45;&gt;[root] tfe_workspace.azure (expand)</title>
<path fill="none" stroke="black" d="M1121.57,-218.13C1124.59,-217.4 1127.58,-216.69 1130.5,-216 1182.18,-203.74 1240.51,-190.25 1285.36,-179.95"/>
<polygon fill="black" stroke="black" points="1286.33,-183.31 1295.3,-177.66 1284.77,-176.49 1286.33,-183.31"/>
</g>
<!-- [root] tfe_variable.service_principal_client_id (expand) -->
<g id="node15" class="node">
<title>[root] tfe_variable.service_principal_client_id (expand)</title>
<polygon fill="none" stroke="black" points="2619.5,-252 2387.5,-252 2387.5,-216 2619.5,-216 2619.5,-252"/>
<text text-anchor="middle" x="2503.5" y="-230.3" font-family="Times,serif" font-size="14.00">tfe_variable.service_principal_client_id</text>
</g>
<!-- [root] tfe_variable.service_principal_client_id (expand)&#45;&gt;[root] tfe_workspace.azure (expand) -->
<g id="edge51" class="edge">
<title>[root] tfe_variable.service_principal_client_id (expand)&#45;&gt;[root] tfe_workspace.azure (expand)</title>
<path fill="none" stroke="black" d="M2387.43,-216.88C2384.42,-216.57 2381.44,-216.28 2378.5,-216 2025.86,-182.91 1602.48,-169.18 1433.97,-164.75"/>
<polygon fill="black" stroke="black" points="1433.81,-161.25 1423.72,-164.48 1433.62,-168.24 1433.81,-161.25"/>
</g>
<!-- [root] var.service_principal_client_id -->
<g id="node22" class="node">
<title>[root] var.service_principal_client_id</title>
<polygon fill="none" stroke="black" points="2589.5,-180 2411.5,-180 2411.5,-144 2595.5,-144 2595.5,-174 2589.5,-180"/>
<polyline fill="none" stroke="black" points="2589.5,-180 2589.5,-174 "/>
<polyline fill="none" stroke="black" points="2595.5,-174 2589.5,-174 "/>
<text text-anchor="middle" x="2503.5" y="-158.3" font-family="Times,serif" font-size="14.00">var.service_principal_client_id</text>
</g>
<!-- [root] tfe_variable.service_principal_client_id (expand)&#45;&gt;[root] var.service_principal_client_id -->
<g id="edge52" class="edge">
<title>[root] tfe_variable.service_principal_client_id (expand)&#45;&gt;[root] var.service_principal_client_id</title>
<path fill="none" stroke="black" d="M2503.5,-215.7C2503.5,-207.98 2503.5,-198.71 2503.5,-190.11"/>
<polygon fill="black" stroke="black" points="2507,-190.1 2503.5,-180.1 2500,-190.1 2507,-190.1"/>
</g>
<!-- [root] tfe_variable.service_principal_client_secret (expand) -->
<g id="node16" class="node">
<title>[root] tfe_variable.service_principal_client_secret (expand)</title>
<polygon fill="none" stroke="black" points="2891,-252 2638,-252 2638,-216 2891,-216 2891,-252"/>
<text text-anchor="middle" x="2764.5" y="-230.3" font-family="Times,serif" font-size="14.00">tfe_variable.service_principal_client_secret</text>
</g>
<!-- [root] tfe_variable.service_principal_client_secret (expand)&#45;&gt;[root] tfe_workspace.azure (expand) -->
<g id="edge53" class="edge">
<title>[root] tfe_variable.service_principal_client_secret (expand)&#45;&gt;[root] tfe_workspace.azure (expand)</title>
<path fill="none" stroke="black" d="M2637.85,-216.82C2634.7,-216.53 2631.58,-216.26 2628.5,-216 2175.69,-178.31 1629.64,-166.96 1433.83,-163.96"/>
<polygon fill="black" stroke="black" points="1433.71,-160.46 1423.66,-163.81 1433.61,-167.46 1433.71,-160.46"/>
</g>
<!-- [root] var.service_principal_client_secret -->
<g id="node23" class="node">
<title>[root] var.service_principal_client_secret</title>
<polygon fill="none" stroke="black" points="2861,-180 2662,-180 2662,-144 2867,-144 2867,-174 2861,-180"/>
<polyline fill="none" stroke="black" points="2861,-180 2861,-174 "/>
<polyline fill="none" stroke="black" points="2867,-174 2861,-174 "/>
<text text-anchor="middle" x="2764.5" y="-158.3" font-family="Times,serif" font-size="14.00">var.service_principal_client_secret</text>
</g>
<!-- [root] tfe_variable.service_principal_client_secret (expand)&#45;&gt;[root] var.service_principal_client_secret -->
<g id="edge54" class="edge">
<title>[root] tfe_variable.service_principal_client_secret (expand)&#45;&gt;[root] var.service_principal_client_secret</title>
<path fill="none" stroke="black" d="M2764.5,-215.7C2764.5,-207.98 2764.5,-198.71 2764.5,-190.11"/>
<polygon fill="black" stroke="black" points="2768,-190.1 2764.5,-180.1 2761,-190.1 2768,-190.1"/>
</g>
<!-- [root] tfe_workspace.azure (expand)&#45;&gt;[root] provider[&quot;registry.terraform.io/hashicorp/tfe&quot;] -->
<g id="edge55" class="edge">
<title>[root] tfe_workspace.azure (expand)&#45;&gt;[root] provider[&quot;registry.terraform.io/hashicorp/tfe&quot;]</title>
<path fill="none" stroke="black" d="M1295.26,-152.63C1201.04,-140.34 1024.82,-117.37 916.17,-103.21"/>
<polygon fill="black" stroke="black" points="916.56,-99.73 906.2,-101.91 915.66,-106.67 916.56,-99.73"/>
</g>
<!-- [root] var.tf_organization -->
<g id="node24" class="node">
<title>[root] var.tf_organization</title>
<polygon fill="none" stroke="black" points="1200,-108 1087,-108 1087,-72 1206,-72 1206,-102 1200,-108"/>
<polyline fill="none" stroke="black" points="1200,-108 1200,-102 "/>
<polyline fill="none" stroke="black" points="1206,-102 1200,-102 "/>
<text text-anchor="middle" x="1146.5" y="-86.3" font-family="Times,serif" font-size="14.00">var.tf_organization</text>
</g>
<!-- [root] tfe_workspace.azure (expand)&#45;&gt;[root] var.tf_organization -->
<g id="edge56" class="edge">
<title>[root] tfe_workspace.azure (expand)&#45;&gt;[root] var.tf_organization</title>
<path fill="none" stroke="black" d="M1307.67,-143.97C1277.65,-134.1 1239.68,-121.62 1208.13,-111.25"/>
<polygon fill="black" stroke="black" points="1209.16,-107.91 1198.57,-108.11 1206.97,-114.56 1209.16,-107.91"/>
</g>
<!-- [root] var.tf_path_directory -->
<g id="node25" class="node">
<title>[root] var.tf_path_directory</title>
<polygon fill="none" stroke="black" points="1349,-108 1224,-108 1224,-72 1355,-72 1355,-102 1349,-108"/>
<polyline fill="none" stroke="black" points="1349,-108 1349,-102 "/>
<polyline fill="none" stroke="black" points="1355,-102 1349,-102 "/>
<text text-anchor="middle" x="1289.5" y="-86.3" font-family="Times,serif" font-size="14.00">var.tf_path_directory</text>
</g>
<!-- [root] tfe_workspace.azure (expand)&#45;&gt;[root] var.tf_path_directory -->
<g id="edge57" class="edge">
<title>[root] tfe_workspace.azure (expand)&#45;&gt;[root] var.tf_path_directory</title>
<path fill="none" stroke="black" d="M1342.2,-143.7C1333.64,-135.14 1323.16,-124.66 1313.8,-115.3"/>
<polygon fill="black" stroke="black" points="1316.15,-112.7 1306.6,-108.1 1311.2,-117.65 1316.15,-112.7"/>
</g>
<!-- [root] var.tf_repo_name -->
<g id="node26" class="node">
<title>[root] var.tf_repo_name</title>
<polygon fill="none" stroke="black" points="1480,-108 1373,-108 1373,-72 1486,-72 1486,-102 1480,-108"/>
<polyline fill="none" stroke="black" points="1480,-108 1480,-102 "/>
<polyline fill="none" stroke="black" points="1486,-102 1480,-102 "/>
<text text-anchor="middle" x="1429.5" y="-86.3" font-family="Times,serif" font-size="14.00">var.tf_repo_name</text>
</g>
<!-- [root] tfe_workspace.azure (expand)&#45;&gt;[root] var.tf_repo_name -->
<g id="edge58" class="edge">
<title>[root] tfe_workspace.azure (expand)&#45;&gt;[root] var.tf_repo_name</title>
<path fill="none" stroke="black" d="M1376.8,-143.7C1385.36,-135.14 1395.84,-124.66 1405.2,-115.3"/>
<polygon fill="black" stroke="black" points="1407.8,-117.65 1412.4,-108.1 1402.85,-112.7 1407.8,-117.65"/>
</g>
<!-- [root] var.tf_repo_token -->
<g id="node27" class="node">
<title>[root] var.tf_repo_token</title>
<polygon fill="none" stroke="black" points="1611,-108 1504,-108 1504,-72 1617,-72 1617,-102 1611,-108"/>
<polyline fill="none" stroke="black" points="1611,-108 1611,-102 "/>
<polyline fill="none" stroke="black" points="1617,-102 1611,-102 "/>
<text text-anchor="middle" x="1560.5" y="-86.3" font-family="Times,serif" font-size="14.00">var.tf_repo_token</text>
</g>
<!-- [root] tfe_workspace.azure (expand)&#45;&gt;[root] var.tf_repo_token -->
<g id="edge59" class="edge">
<title>[root] tfe_workspace.azure (expand)&#45;&gt;[root] var.tf_repo_token</title>
<path fill="none" stroke="black" d="M1408.41,-143.97C1436.5,-134.19 1471.96,-121.84 1501.57,-111.52"/>
<polygon fill="black" stroke="black" points="1503.07,-114.71 1511.37,-108.11 1500.77,-108.09 1503.07,-114.71"/>
</g>
<!-- [root] var.tf_workspace -->
<g id="node28" class="node">
<title>[root] var.tf_workspace</title>
<polygon fill="none" stroke="black" points="1739.5,-108 1635.5,-108 1635.5,-72 1745.5,-72 1745.5,-102 1739.5,-108"/>
<polyline fill="none" stroke="black" points="1739.5,-108 1739.5,-102 "/>
<polyline fill="none" stroke="black" points="1745.5,-102 1739.5,-102 "/>
<text text-anchor="middle" x="1690.5" y="-86.3" font-family="Times,serif" font-size="14.00">var.tf_workspace</text>
</g>
<!-- [root] tfe_workspace.azure (expand)&#45;&gt;[root] var.tf_workspace -->
<g id="edge60" class="edge">
<title>[root] tfe_workspace.azure (expand)&#45;&gt;[root] var.tf_workspace</title>
<path fill="none" stroke="black" d="M1423.69,-149.31C1477.7,-139.21 1556.9,-123.79 1625.5,-108 1625.6,-107.98 1625.7,-107.95 1625.8,-107.93"/>
<polygon fill="black" stroke="black" points="1626.32,-111.41 1635.24,-105.69 1624.7,-104.6 1626.32,-111.41"/>
</g>
<!-- [root] meta.count&#45;boundary (EachMode fixup) -->
<g id="node30" class="node">
<title>[root] meta.count&#45;boundary (EachMode fixup)</title>
<ellipse fill="none" stroke="black" cx="1165.5" cy="-306" rx="176.27" ry="18"/>
<text text-anchor="middle" x="1165.5" y="-302.3" font-family="Times,serif" font-size="14.00">[root] meta.count&#45;boundary (EachMode fixup)</text>
</g>
<!-- [root] meta.count&#45;boundary (EachMode fixup)&#45;&gt;[root] tfe_variable.aks_sku (expand) -->
<g id="edge1" class="edge">
<title>[root] meta.count&#45;boundary (EachMode fixup)&#45;&gt;[root] tfe_variable.aks_sku (expand)</title>
<path fill="none" stroke="black" d="M1174.89,-287.7C1179.26,-279.64 1184.56,-269.89 1189.4,-260.98"/>
<polygon fill="black" stroke="black" points="1192.52,-262.56 1194.21,-252.1 1186.37,-259.22 1192.52,-262.56"/>
</g>
<!-- [root] meta.count&#45;boundary (EachMode fixup)&#45;&gt;[root] tfe_variable.arm_client_id (expand) -->
<g id="edge2" class="edge">
<title>[root] meta.count&#45;boundary (EachMode fixup)&#45;&gt;[root] tfe_variable.arm_client_id (expand)</title>
<path fill="none" stroke="black" d="M991.89,-302.76C795.08,-298.62 464.62,-286.81 171.35,-252"/>
<polygon fill="black" stroke="black" points="171.72,-248.52 161.37,-250.8 170.89,-255.47 171.72,-248.52"/>
</g>
<!-- [root] meta.count&#45;boundary (EachMode fixup)&#45;&gt;[root] tfe_variable.arm_client_secret (expand) -->
<g id="edge3" class="edge">
<title>[root] meta.count&#45;boundary (EachMode fixup)&#45;&gt;[root] tfe_variable.arm_client_secret (expand)</title>
<path fill="none" stroke="black" d="M1002.9,-299.01C844.26,-292.04 595.98,-278.15 371.72,-252.07"/>
<polygon fill="black" stroke="black" points="372.07,-248.59 361.73,-250.9 371.25,-255.54 372.07,-248.59"/>
</g>
<!-- [root] meta.count&#45;boundary (EachMode fixup)&#45;&gt;[root] tfe_variable.arm_suscription_id (expand) -->
<g id="edge4" class="edge">
<title>[root] meta.count&#45;boundary (EachMode fixup)&#45;&gt;[root] tfe_variable.arm_suscription_id (expand)</title>
<path fill="none" stroke="black" d="M1024.65,-295.14C908.1,-286.32 738.01,-271.9 580.06,-252.15"/>
<polygon fill="black" stroke="black" points="580.03,-248.62 569.67,-250.84 579.16,-255.56 580.03,-248.62"/>
</g>
<!-- [root] meta.count&#45;boundary (EachMode fixup)&#45;&gt;[root] tfe_variable.arm_tenant_id (expand) -->
<g id="edge5" class="edge">
<title>[root] meta.count&#45;boundary (EachMode fixup)&#45;&gt;[root] tfe_variable.arm_tenant_id (expand)</title>
<path fill="none" stroke="black" d="M1287.34,-292.95C1308.39,-291.11 1330.07,-289.37 1350.5,-288 1722.69,-263 1820.87,-294.11 2195.22,-252.05"/>
<polygon fill="black" stroke="black" points="2195.7,-255.51 2205.24,-250.91 2194.91,-248.56 2195.7,-255.51"/>
</g>
<!-- [root] meta.count&#45;boundary (EachMode fixup)&#45;&gt;[root] tfe_variable.enviroment (expand) -->
<g id="edge6" class="edge">
<title>[root] meta.count&#45;boundary (EachMode fixup)&#45;&gt;[root] tfe_variable.enviroment (expand)</title>
<path fill="none" stroke="black" d="M1210.98,-288.59C1238.35,-278.71 1273.43,-266.06 1302.62,-255.52"/>
<polygon fill="black" stroke="black" points="1304.06,-258.73 1312.27,-252.04 1301.68,-252.14 1304.06,-258.73"/>
</g>
<!-- [root] meta.count&#45;boundary (EachMode fixup)&#45;&gt;[root] tfe_variable.load_balancer_sku (expand) -->
<g id="edge7" class="edge">
<title>[root] meta.count&#45;boundary (EachMode fixup)&#45;&gt;[root] tfe_variable.load_balancer_sku (expand)</title>
<path fill="none" stroke="black" d="M1246.81,-289.98C1303.98,-279.42 1380.92,-265.21 1442.25,-253.89"/>
<polygon fill="black" stroke="black" points="1443.15,-257.28 1452.34,-252.02 1441.87,-250.4 1443.15,-257.28"/>
</g>
<!-- [root] meta.count&#45;boundary (EachMode fixup)&#45;&gt;[root] tfe_variable.location (expand) -->
<g id="edge8" class="edge">
<title>[root] meta.count&#45;boundary (EachMode fixup)&#45;&gt;[root] tfe_variable.location (expand)</title>
<path fill="none" stroke="black" d="M1288.63,-293.12C1402.73,-281.81 1565.34,-264.89 1645.24,-252.06"/>
<polygon fill="black" stroke="black" points="1646.2,-255.45 1655.49,-250.36 1645.06,-248.55 1646.2,-255.45"/>
</g>
<!-- [root] meta.count&#45;boundary (EachMode fixup)&#45;&gt;[root] tfe_variable.max_pods_per_node (expand) -->
<g id="edge9" class="edge">
<title>[root] meta.count&#45;boundary (EachMode fixup)&#45;&gt;[root] tfe_variable.max_pods_per_node (expand)</title>
<path fill="none" stroke="black" d="M1290.87,-293.3C1310.82,-291.49 1331.22,-289.67 1350.5,-288 1543.6,-271.26 1595.09,-275.2 1791.31,-252.09"/>
<polygon fill="black" stroke="black" points="1791.86,-255.55 1801.37,-250.9 1791.03,-248.6 1791.86,-255.55"/>
</g>
<!-- [root] meta.count&#45;boundary (EachMode fixup)&#45;&gt;[root] tfe_variable.network_plugin (expand) -->
<g id="edge10" class="edge">
<title>[root] meta.count&#45;boundary (EachMode fixup)&#45;&gt;[root] tfe_variable.network_plugin (expand)</title>
<path fill="none" stroke="black" d="M1288.35,-293.07C1309.08,-291.24 1330.4,-289.47 1350.5,-288 1639.32,-266.84 1715.9,-285.69 2007.25,-252.06"/>
<polygon fill="black" stroke="black" points="2007.74,-255.53 2017.26,-250.89 2006.93,-248.57 2007.74,-255.53"/>
</g>
<!-- [root] meta.count&#45;boundary (EachMode fixup)&#45;&gt;[root] tfe_variable.node_pool_node_count (expand) -->
<g id="edge11" class="edge">
<title>[root] meta.count&#45;boundary (EachMode fixup)&#45;&gt;[root] tfe_variable.node_pool_node_count (expand)</title>
<path fill="none" stroke="black" d="M1069.98,-290.83C994.81,-279.69 889.74,-264.1 809.69,-252.23"/>
<polygon fill="black" stroke="black" points="809.97,-248.73 799.56,-250.73 808.94,-255.66 809.97,-248.73"/>
</g>
<!-- [root] meta.count&#45;boundary (EachMode fixup)&#45;&gt;[root] tfe_variable.node_vm_size (expand) -->
<g id="edge12" class="edge">
<title>[root] meta.count&#45;boundary (EachMode fixup)&#45;&gt;[root] tfe_variable.node_vm_size (expand)</title>
<path fill="none" stroke="black" d="M1104.81,-289.03C1065.91,-278.79 1015.16,-265.44 973.85,-254.57"/>
<polygon fill="black" stroke="black" points="974.67,-251.16 964.11,-252 972.89,-257.93 974.67,-251.16"/>
</g>
<!-- [root] meta.count&#45;boundary (EachMode fixup)&#45;&gt;[root] tfe_variable.project (expand) -->
<g id="edge13" class="edge">
<title>[root] meta.count&#45;boundary (EachMode fixup)&#45;&gt;[root] tfe_variable.project (expand)</title>
<path fill="none" stroke="black" d="M1140.08,-288.05C1126.38,-278.92 1109.3,-267.53 1094.47,-257.65"/>
<polygon fill="black" stroke="black" points="1096.31,-254.67 1086.05,-252.03 1092.43,-260.49 1096.31,-254.67"/>
</g>
<!-- [root] meta.count&#45;boundary (EachMode fixup)&#45;&gt;[root] tfe_variable.service_principal_client_id (expand) -->
<g id="edge14" class="edge">
<title>[root] meta.count&#45;boundary (EachMode fixup)&#45;&gt;[root] tfe_variable.service_principal_client_id (expand)</title>
<path fill="none" stroke="black" d="M1286.33,-292.9C1307.69,-291.05 1329.74,-289.32 1350.5,-288 1803.41,-259.28 1921.26,-290.39 2377.29,-252.05"/>
<polygon fill="black" stroke="black" points="2377.77,-255.52 2387.44,-251.19 2377.18,-248.54 2377.77,-255.52"/>
</g>
<!-- [root] meta.count&#45;boundary (EachMode fixup)&#45;&gt;[root] tfe_variable.service_principal_client_secret (expand) -->
<g id="edge15" class="edge">
<title>[root] meta.count&#45;boundary (EachMode fixup)&#45;&gt;[root] tfe_variable.service_principal_client_secret (expand)</title>
<path fill="none" stroke="black" d="M1285.83,-292.83C1307.35,-290.97 1329.57,-289.25 1350.5,-288 1914.38,-254.18 2060.22,-294.81 2627.77,-252"/>
<polygon fill="black" stroke="black" points="2628.15,-255.48 2637.85,-251.24 2627.62,-248.5 2628.15,-255.48"/>
</g>
<!-- [root] provider[&quot;registry.terraform.io/hashicorp/tfe&quot;] (close) -->
<g id="node31" class="node">
<title>[root] provider[&quot;registry.terraform.io/hashicorp/tfe&quot;] (close)</title>
<ellipse fill="none" stroke="black" cx="1582.5" cy="-306" rx="222.86" ry="18"/>
<text text-anchor="middle" x="1582.5" y="-302.3" font-family="Times,serif" font-size="14.00">[root] provider[&quot;registry.terraform.io/hashicorp/tfe&quot;] (close)</text>
</g>
<!-- [root] provider[&quot;registry.terraform.io/hashicorp/tfe&quot;] (close)&#45;&gt;[root] tfe_variable.aks_sku (expand) -->
<g id="edge16" class="edge">
<title>[root] provider[&quot;registry.terraform.io/hashicorp/tfe&quot;] (close)&#45;&gt;[root] tfe_variable.aks_sku (expand)</title>
<path fill="none" stroke="black" d="M1486.11,-289.76C1428.32,-280.28 1353.16,-267.34 1277.71,-252.19"/>
<polygon fill="black" stroke="black" points="1278.04,-248.69 1267.55,-250.13 1276.66,-255.55 1278.04,-248.69"/>
</g>
<!-- [root] provider[&quot;registry.terraform.io/hashicorp/tfe&quot;] (close)&#45;&gt;[root] tfe_variable.arm_client_id (expand) -->
<g id="edge17" class="edge">
<title>[root] provider[&quot;registry.terraform.io/hashicorp/tfe&quot;] (close)&#45;&gt;[root] tfe_variable.arm_client_id (expand)</title>
<path fill="none" stroke="black" d="M1429.68,-292.87C1403.29,-291.04 1376.11,-289.33 1350.5,-288 829.84,-260.99 693.82,-308.26 171.42,-251.98"/>
<polygon fill="black" stroke="black" points="171.68,-248.49 161.36,-250.89 170.93,-255.45 171.68,-248.49"/>
</g>
<!-- [root] provider[&quot;registry.terraform.io/hashicorp/tfe&quot;] (close)&#45;&gt;[root] tfe_variable.arm_client_secret (expand) -->
<g id="edge18" class="edge">
<title>[root] provider[&quot;registry.terraform.io/hashicorp/tfe&quot;] (close)&#45;&gt;[root] tfe_variable.arm_client_secret (expand)</title>
<path fill="none" stroke="black" d="M1428.74,-292.94C1402.64,-291.12 1375.8,-289.39 1350.5,-288 918.6,-264.25 805.76,-296.13 371.7,-252.04"/>
<polygon fill="black" stroke="black" points="372.02,-248.55 361.72,-251.02 371.31,-255.52 372.02,-248.55"/>
</g>
<!-- [root] provider[&quot;registry.terraform.io/hashicorp/tfe&quot;] (close)&#45;&gt;[root] tfe_variable.arm_suscription_id (expand) -->
<g id="edge19" class="edge">
<title>[root] provider[&quot;registry.terraform.io/hashicorp/tfe&quot;] (close)&#45;&gt;[root] tfe_variable.arm_suscription_id (expand)</title>
<path fill="none" stroke="black" d="M1427.17,-293.05C1401.56,-291.24 1375.29,-289.49 1350.5,-288 1010.98,-267.65 921.85,-287.37 579.85,-252.07"/>
<polygon fill="black" stroke="black" points="579.96,-248.56 569.66,-251.01 579.24,-255.52 579.96,-248.56"/>
</g>
<!-- [root] provider[&quot;registry.terraform.io/hashicorp/tfe&quot;] (close)&#45;&gt;[root] tfe_variable.arm_tenant_id (expand) -->
<g id="edge20" class="edge">
<title>[root] provider[&quot;registry.terraform.io/hashicorp/tfe&quot;] (close)&#45;&gt;[root] tfe_variable.arm_tenant_id (expand)</title>
<path fill="none" stroke="black" d="M1755.69,-294.62C1876.32,-286.31 2041.09,-272.78 2195.09,-252.12"/>
<polygon fill="black" stroke="black" points="2195.78,-255.56 2205.22,-250.75 2194.84,-248.62 2195.78,-255.56"/>
</g>
<!-- [root] provider[&quot;registry.terraform.io/hashicorp/tfe&quot;] (close)&#45;&gt;[root] tfe_variable.enviroment (expand) -->
<g id="edge21" class="edge">
<title>[root] provider[&quot;registry.terraform.io/hashicorp/tfe&quot;] (close)&#45;&gt;[root] tfe_variable.enviroment (expand)</title>
<path fill="none" stroke="black" d="M1529.93,-288.5C1498.17,-278.53 1457.46,-265.75 1423.79,-255.18"/>
<polygon fill="black" stroke="black" points="1424.63,-251.78 1414.04,-252.12 1422.53,-258.45 1424.63,-251.78"/>
</g>
<!-- [root] provider[&quot;registry.terraform.io/hashicorp/tfe&quot;] (close)&#45;&gt;[root] tfe_variable.load_balancer_sku (expand) -->
<g id="edge22" class="edge">
<title>[root] provider[&quot;registry.terraform.io/hashicorp/tfe&quot;] (close)&#45;&gt;[root] tfe_variable.load_balancer_sku (expand)</title>
<path fill="none" stroke="black" d="M1573.11,-287.7C1568.74,-279.64 1563.44,-269.89 1558.6,-260.98"/>
<polygon fill="black" stroke="black" points="1561.63,-259.22 1553.79,-252.1 1555.48,-262.56 1561.63,-259.22"/>
</g>
<!-- [root] provider[&quot;registry.terraform.io/hashicorp/tfe&quot;] (close)&#45;&gt;[root] tfe_variable.location (expand) -->
<g id="edge23" class="edge">
<title>[root] provider[&quot;registry.terraform.io/hashicorp/tfe&quot;] (close)&#45;&gt;[root] tfe_variable.location (expand)</title>
<path fill="none" stroke="black" d="M1615.66,-288.05C1634.12,-278.62 1657.29,-266.78 1677.06,-256.68"/>
<polygon fill="black" stroke="black" points="1678.85,-259.7 1686.17,-252.03 1675.67,-253.46 1678.85,-259.7"/>
</g>
<!-- [root] provider[&quot;registry.terraform.io/hashicorp/tfe&quot;] (close)&#45;&gt;[root] tfe_variable.max_pods_per_node (expand) -->
<g id="edge24" class="edge">
<title>[root] provider[&quot;registry.terraform.io/hashicorp/tfe&quot;] (close)&#45;&gt;[root] tfe_variable.max_pods_per_node (expand)</title>
<path fill="none" stroke="black" d="M1655.46,-288.94C1702.37,-278.61 1763.6,-265.14 1813.11,-254.24"/>
<polygon fill="black" stroke="black" points="1814.15,-257.59 1823.17,-252.02 1812.65,-250.75 1814.15,-257.59"/>
</g>
<!-- [root] provider[&quot;registry.terraform.io/hashicorp/tfe&quot;] (close)&#45;&gt;[root] tfe_variable.network_plugin (expand) -->
<g id="edge25" class="edge">
<title>[root] provider[&quot;registry.terraform.io/hashicorp/tfe&quot;] (close)&#45;&gt;[root] tfe_variable.network_plugin (expand)</title>
<path fill="none" stroke="black" d="M1709.04,-291.11C1791.35,-281.63 1901.23,-268.16 2007.54,-252.1"/>
<polygon fill="black" stroke="black" points="2008.12,-255.56 2017.48,-250.59 2007.07,-248.63 2008.12,-255.56"/>
</g>
<!-- [root] provider[&quot;registry.terraform.io/hashicorp/tfe&quot;] (close)&#45;&gt;[root] tfe_variable.node_pool_node_count (expand) -->
<g id="edge26" class="edge">
<title>[root] provider[&quot;registry.terraform.io/hashicorp/tfe&quot;] (close)&#45;&gt;[root] tfe_variable.node_pool_node_count (expand)</title>
<path fill="none" stroke="black" d="M1424.64,-293.29C1399.83,-291.49 1374.47,-289.67 1350.5,-288 1112.96,-271.41 1050.26,-277.5 809.77,-252.09"/>
<polygon fill="black" stroke="black" points="809.98,-248.59 799.67,-251.01 809.24,-255.55 809.98,-248.59"/>
</g>
<!-- [root] provider[&quot;registry.terraform.io/hashicorp/tfe&quot;] (close)&#45;&gt;[root] tfe_variable.node_vm_size (expand) -->
<g id="edge27" class="edge">
<title>[root] provider[&quot;registry.terraform.io/hashicorp/tfe&quot;] (close)&#45;&gt;[root] tfe_variable.node_vm_size (expand)</title>
<path fill="none" stroke="black" d="M1429,-292.93C1287.58,-281.52 1086.86,-264.5 991.75,-252.08"/>
<polygon fill="black" stroke="black" points="992.16,-248.6 981.78,-250.74 991.23,-255.54 992.16,-248.6"/>
</g>
<!-- [root] provider[&quot;registry.terraform.io/hashicorp/tfe&quot;] (close)&#45;&gt;[root] tfe_variable.project (expand) -->
<g id="edge28" class="edge">
<title>[root] provider[&quot;registry.terraform.io/hashicorp/tfe&quot;] (close)&#45;&gt;[root] tfe_variable.project (expand)</title>
<path fill="none" stroke="black" d="M1436.29,-292.4C1350.15,-283.89 1238.96,-271.01 1131.89,-252.14"/>
<polygon fill="black" stroke="black" points="1132.33,-248.66 1121.87,-250.35 1131.1,-255.55 1132.33,-248.66"/>
</g>
<!-- [root] provider[&quot;registry.terraform.io/hashicorp/tfe&quot;] (close)&#45;&gt;[root] tfe_variable.service_principal_client_id (expand) -->
<g id="edge29" class="edge">
<title>[root] provider[&quot;registry.terraform.io/hashicorp/tfe&quot;] (close)&#45;&gt;[root] tfe_variable.service_principal_client_id (expand)</title>
<path fill="none" stroke="black" d="M1769.77,-296.17C1928.75,-287.82 2163.14,-273.49 2377.25,-252.09"/>
<polygon fill="black" stroke="black" points="2377.83,-255.55 2387.42,-251.06 2377.12,-248.58 2377.83,-255.55"/>
</g>
<!-- [root] provider[&quot;registry.terraform.io/hashicorp/tfe&quot;] (close)&#45;&gt;[root] tfe_variable.service_principal_client_secret (expand) -->
<g id="edge30" class="edge">
<title>[root] provider[&quot;registry.terraform.io/hashicorp/tfe&quot;] (close)&#45;&gt;[root] tfe_variable.service_principal_client_secret (expand)</title>
<path fill="none" stroke="black" d="M1788.23,-299.06C1997.02,-291.98 2329.75,-277.86 2627.71,-252.03"/>
<polygon fill="black" stroke="black" points="2628.19,-255.5 2637.85,-251.14 2627.58,-248.53 2628.19,-255.5"/>
</g>
<!-- [root] root -->
<g id="node32" class="node">
<title>[root] root</title>
<ellipse fill="none" stroke="black" cx="1373.5" cy="-378" rx="47.39" ry="18"/>
<text text-anchor="middle" x="1373.5" y="-374.3" font-family="Times,serif" font-size="14.00">[root] root</text>
</g>
<!-- [root] root&#45;&gt;[root] meta.count&#45;boundary (EachMode fixup) -->
<g id="edge32" class="edge">
<title>[root] root&#45;&gt;[root] meta.count&#45;boundary (EachMode fixup)</title>
<path fill="none" stroke="black" d="M1339.15,-365.44C1307.91,-354.93 1261.13,-339.18 1224,-326.69"/>
<polygon fill="black" stroke="black" points="1224.89,-323.29 1214.3,-323.42 1222.66,-329.93 1224.89,-323.29"/>
</g>
<!-- [root] root&#45;&gt;[root] provider[&quot;registry.terraform.io/hashicorp/tfe&quot;] (close) -->
<g id="edge33" class="edge">
<title>[root] root&#45;&gt;[root] provider[&quot;registry.terraform.io/hashicorp/tfe&quot;] (close)</title>
<path fill="none" stroke="black" d="M1408.01,-365.44C1439.3,-354.96 1486.09,-339.29 1523.34,-326.82"/>
<polygon fill="black" stroke="black" points="1524.71,-330.05 1533.08,-323.55 1522.48,-323.41 1524.71,-330.05"/>
</g>
</g>
</svg>
